<?xml version="1.0" standalone="no"?>
<!DOCTYPE svg PUBLIC "-//W3C//DTD SVG 20010904//EN"
 "http://www.w3.org/TR/2001/REC-SVG-20010904/DTD/svg10.dtd">
<svg version="1.0" xmlns="http://www.w3.org/2000/svg"
 width="1000.000000pt" height="410.000000pt" viewBox="0 0 1000.000000 410.000000"
 preserveAspectRatio="xMidYMid meet">
<metadata>
Created by potrace 1.16, written by Peter Selinger 2001-2019
</metadata>
<g transform="translate(0.000000,410.000000) scale(0.100000,-0.100000)"
fill="#000000" stroke="none">
<path d="M1398 3220 c-119 -25 -149 -35 -253 -88 -70 -36 -108 -64 -170 -127
-206 -205 -295 -491 -295 -943 0 -210 11 -325 45 -458 101 -397 347 -616 760
-673 112 -16 377 -14 478 4 141 25 347 99 404 147 11 8 13 123 11 587 l-3 576
-395 0 -395 0 -3 -199 c-2 -138 1 -203 9 -212 9 -11 46 -14 160 -14 l149 0 0
-214 0 -213 -37 -6 c-255 -39 -418 -3 -532 118 -101 108 -148 259 -158 506
-17 405 95 657 329 739 141 49 391 47 586 -5 78 -21 122 -24 122 -9 0 2 18 80
40 174 22 94 40 182 40 196 0 21 -9 29 -53 50 -130 59 -301 84 -567 83 -139 0
-207 -5 -272 -19z"/>
<path d="M4502 3148 c-17 -17 -17 -2159 0 -2176 17 -17 449 -17 466 0 9 9 12
127 12 470 l0 458 310 0 310 0 0 -459 c0 -377 2 -461 14 -470 9 -8 82 -11 242
-9 l229 3 0 1095 0 1095 -230 3 c-207 2 -231 1 -242 -15 -10 -13 -13 -111 -13
-410 l0 -393 -310 0 -310 0 0 398 c0 296 -3 401 -12 410 -17 17 -449 17 -466
0z"/>
<path d="M7885 3148 c-3 -7 -4 -501 -3 -1098 l3 -1085 171 -3 172 -2 11 31 c6
18 11 43 11 56 l0 23 40 -29 c186 -135 571 -162 759 -55 139 80 230 256 261
506 19 151 8 491 -19 593 -78 296 -273 438 -581 421 -108 -5 -222 -31 -291
-66 -21 -11 -41 -20 -44 -20 -3 0 -5 161 -5 358 0 265 -3 361 -12 370 -18 18
-467 17 -473 0z m826 -1061 c54 -29 92 -88 115 -177 22 -85 15 -377 -10 -458
-36 -112 -126 -156 -275 -133 -41 6 -99 22 -128 36 l-53 24 0 334 0 334 28 13
c115 55 249 66 323 27z"/>
<path d="M2756 3095 c-56 -20 -107 -65 -138 -120 -137 -250 152 -511 389 -352
35 24 56 49 81 97 31 60 34 71 30 135 -7 111 -61 190 -158 234 -53 24 -146 27
-204 6z"/>
<path d="M3487 2884 c-4 -4 -7 -103 -7 -220 l0 -212 -112 -27 c-62 -15 -119
-32 -125 -38 -18 -13 -18 -298 -1 -315 8 -8 50 -12 125 -12 l113 0 0 -350 c0
-387 7 -456 60 -560 35 -69 113 -143 186 -177 30 -14 94 -32 142 -40 163 -29
423 1 436 50 10 37 7 297 -4 317 -9 17 -22 19 -113 17 -115 -2 -163 14 -201
66 -20 27 -21 43 -24 353 l-3 324 159 0 c109 0 162 4 170 12 8 8 12 66 12 195
0 170 -1 183 -19 193 -11 5 -86 10 -170 10 l-151 0 -2 208 -3 207 -231 3
c-127 1 -233 -1 -237 -4z"/>
<path d="M2620 2450 c-20 -20 -20 -33 -20 -727 0 -551 3 -714 13 -733 l13 -25
218 -3 c153 -2 223 1 232 9 12 10 14 134 14 745 0 715 0 734 -19 744 -12 6
-103 10 -225 10 -193 0 -207 -1 -226 -20z"/>
<path d="M6286 2444 c-10 -26 -6 -1054 4 -1127 29 -196 120 -312 292 -368 66
-22 90 -24 253 -24 170 1 185 2 265 29 47 16 116 44 154 63 37 19 69 33 71 31
1 -2 6 -21 12 -43 l9 -40 153 -3 c105 -2 158 1 167 9 12 10 14 131 14 738 0
399 -4 732 -8 739 -7 9 -61 12 -238 10 l-229 -3 -5 -535 -5 -535 -55 -27
c-152 -74 -310 -55 -353 41 -9 18 -14 181 -17 541 l-5 515 -236 3 c-209 2
-237 1 -243 -14z"/>
</g>
</svg>
